<svg width="93" height="26" viewBox="0 0 93 26" fill="none" xmlns="http://www.w3.org/2000/svg">
<path d="M13.1618 16.723V24.5108H7.81787V17.2845V16.723C7.81787 15.5756 7.89209 14.6235 8.06528 13.8911C8.21372 13.1831 8.51061 12.4751 8.9312 11.7916C9.5992 10.7662 10.4651 9.96058 11.5042 9.42349C12.5681 8.86199 13.7309 8.59344 14.9927 8.59344C16.4523 8.59344 17.7636 8.95964 18.9511 9.66762C20.114 10.4 20.9799 11.3765 21.5489 12.5972C21.8211 13.1343 21.9942 13.6958 22.0932 14.2817C22.1922 14.8432 22.2417 15.6733 22.2417 16.723V17.2845V24.5108H16.8729V16.723V16.1859C16.8482 14.5747 16.2297 13.7934 15.0174 13.7934C13.7804 13.7934 13.1618 14.5991 13.1618 16.1859V16.723Z" fill="white"/>
<path d="M55.7654 24.5108H50.4214V17.1869V16.4301C50.4214 15.5268 50.4956 14.6967 50.6688 13.9399C50.842 13.1343 51.1141 12.4507 51.4605 11.8892C51.8563 11.2789 52.3017 10.7418 52.846 10.2535C54.182 9.10612 55.7654 8.5202 57.6456 8.5202C57.8188 8.5202 58.0662 8.54462 58.3879 8.56903V13.9155C58.0662 13.8179 57.7941 13.769 57.5467 13.769C56.755 13.769 56.2354 14.1352 55.9385 14.892C55.8148 15.2094 55.7406 15.8197 55.7406 16.723V17.1136V24.5108H55.7654Z" fill="white"/>
<path d="M59.3525 15.9906V3.73523H64.6965V15.3071V16.015C64.6965 16.9672 64.8202 17.6995 65.0924 18.1878C65.3398 18.6272 65.6861 18.969 66.1067 19.1888C66.5521 19.4329 67.0221 19.5549 67.5417 19.5549C68.086 19.5549 68.5808 19.4329 69.0261 19.1643C69.4715 18.8958 69.8178 18.554 70.0652 18.1146C70.3126 17.6751 70.4611 17.1869 70.4611 16.6498C70.4611 16.1371 70.3374 15.6488 70.0652 15.2094C69.7931 14.77 69.422 14.4282 69.0014 14.1841C68.5313 13.9399 68.0365 13.8179 67.4675 13.8179C66.9727 13.8179 66.3789 13.9399 65.7109 14.1841V8.76434C66.3294 8.61786 66.8984 8.56903 67.418 8.56903C68.9272 8.56903 70.3374 8.91082 71.6239 9.6188C72.9104 10.3268 73.9248 11.3033 74.6422 12.5484C75.3597 13.7934 75.7556 15.1606 75.7556 16.6498C75.7556 18.1146 75.3845 19.4817 74.667 20.7512C73.9248 22.0207 72.9351 23.0216 71.6981 23.7296C70.4611 24.462 69.0756 24.8282 67.5912 24.8282C66.1067 24.8282 64.7213 24.4864 63.4595 23.7784C62.1977 23.0704 61.1833 22.0939 60.4906 20.8488C59.7484 19.6282 59.3773 18.2611 59.3773 16.8207V15.9906H59.3525Z" fill="white"/>
<path d="M89.4127 8.61786H92.3568V13.8911H89.4127V16.6254V17.3334C89.4127 18.1146 89.5858 18.7005 89.9322 19.0667C90.2538 19.4329 90.7981 19.6038 91.5404 19.6038C91.6146 19.6038 91.8867 19.5794 92.3568 19.5305V24.7549C91.9115 24.8038 91.5651 24.8282 91.2929 24.8282C90.5012 24.8282 89.759 24.7061 89.0415 24.4864C88.3241 24.2667 87.6808 23.9493 87.0623 23.5343C86.4685 23.1437 85.9242 22.631 85.4789 22.0207C85.1078 21.508 84.8109 20.9953 84.5882 20.4826C84.3903 19.9944 84.2419 19.4085 84.1676 18.7493C84.0934 18.0413 84.0439 17.1869 84.0439 16.1615V15.6977V3.73523H89.3879V8.61786H89.4127Z" fill="white"/>
<path d="M79.714 9.93615C78.6749 9.93615 77.7347 9.52112 77.042 8.83755V24.4864H82.4107V8.83755C81.718 9.52112 80.7778 9.93615 79.714 9.93615Z" fill="white"/>
<path d="M79.7143 9.08169C81.3267 9.08169 82.6337 7.79194 82.6337 6.20094C82.6337 4.60995 81.3267 3.32019 79.7143 3.32019C78.102 3.32019 76.7949 4.60995 76.7949 6.20094C76.7949 7.79194 78.102 9.08169 79.7143 9.08169Z" fill="white"/>
<path d="M3.19152 9.93615C2.15241 9.93615 1.21227 9.52112 0.519531 8.83755V24.4864H5.88825V8.83755C5.19551 9.52112 4.23062 9.93615 3.19152 9.93615Z" fill="white"/>
<path d="M3.19137 9.08169C4.8037 9.08169 6.11076 7.79194 6.11076 6.20094C6.11076 4.60995 4.8037 3.32019 3.19137 3.32019C1.57903 3.32019 0.271973 4.60995 0.271973 6.20094C0.271973 7.79194 1.57903 9.08169 3.19137 9.08169Z" fill="white"/>
<path d="M41.1436 18.9934C43.1658 18.9934 44.8052 17.3867 44.8052 15.4047C44.8052 13.4227 43.1658 11.816 41.1436 11.816C39.1213 11.816 37.4819 13.4227 37.4819 15.4047C37.4819 17.3867 39.1213 18.9934 41.1436 18.9934Z" fill="white"/>
<path d="M49.6295 8.66665C51.0232 8.66665 52.153 7.55178 52.153 6.17651C52.153 4.80124 51.0232 3.68637 49.6295 3.68637C48.2358 3.68637 47.106 4.80124 47.106 6.17651C47.106 7.55178 48.2358 8.66665 49.6295 8.66665Z" fill="white"/>
<path d="M43.3454 3.10048C44.1516 3.10048 44.8051 2.4556 44.8051 1.6601C44.8051 0.864605 44.1516 0.219727 43.3454 0.219727C42.5393 0.219727 41.8857 0.864605 41.8857 1.6601C41.8857 2.4556 42.5393 3.10048 43.3454 3.10048Z" fill="white"/>
<path d="M49.6295 9.39908C47.8235 9.39908 46.339 7.9587 46.339 6.17654C46.339 5.5418 46.5369 4.95589 46.8586 4.46762C46.2153 3.95495 45.4978 3.51551 44.7061 3.19814C44.335 3.51551 43.865 3.71081 43.3454 3.71081C42.4795 3.71081 41.762 3.19814 41.4404 2.46574C38.1993 2.24603 34.4388 3.3202 30.8514 5.81035C24.0972 10.5221 21.9695 17.6019 25.161 22.0695C28.3526 26.5371 35.8242 26.9277 42.5784 22.1916C47.774 18.5784 50.2233 13.5737 49.6295 9.39908ZM45.7205 15.4047C45.7205 17.8949 43.667 19.9211 41.1435 19.9211C40.0796 19.9211 39.1148 19.5549 38.3231 18.969C34.2161 20.8488 30.5792 20.1653 28.8474 17.7484C26.7692 14.8432 28.0062 10.2047 33.1028 6.64039C38.1993 3.07607 43.0485 3.46668 45.1515 6.37185C46.438 8.17842 46.4627 10.6441 45.0772 13.1099C45.4978 13.769 45.7205 14.5503 45.7205 15.4047Z" fill="white"/>
</svg>
