<?xml version="1.0" encoding="utf-8"?>
<!-- Generator: Adobe Illustrator 27.1.1, SVG Export Plug-In . SVG Version: 6.00 Build 0)  -->
<svg version="1.1" id="Layer_1" xmlns="http://www.w3.org/2000/svg" xmlns:xlink="http://www.w3.org/1999/xlink" x="0px" y="0px"
	 viewBox="0 0 1920 1080" style="enable-background:new 0 0 1920 1080;" xml:space="preserve">
<style type="text/css">
	.st0{fill:#FFFFFF;}
	.st1{fill:#219AD6;}
</style>
<g>
	<g>
		<path class="st0" d="M418.4,443.5v127.1h-86.3V452.6v-9c0-18.8,1.3-34.2,3.9-46.3c2.6-11.7,7.2-23.2,14-34.4
			c10.7-16.9,24.6-29.8,41.6-38.8c17.2-9.1,36-13.7,56.3-13.7c23.6,0,44.9,5.9,63.8,17.6c19,11.9,32.9,27.9,41.9,48.1
			c4.3,8.8,7.2,17.9,8.8,27.4c1.5,9.3,2.3,22.7,2.3,40.1v9v118.1h-86.3V443.5v-8.8c-0.4-26.2-10.3-39.3-30-39.3
			c-20,0-30,13.1-30,39.3V443.5z"/>
		<path class="st0" d="M1105.6,570.7h-86.3V451.3v-12.4c0-14.8,1.4-28.3,4.1-40.6c2.9-13.1,7.2-24.2,12.9-33.3
			c6.2-10,13.7-18.9,22.5-26.6c21.4-18.8,47.1-28.2,77.3-28.2c2.8,0,6.7,0.3,11.9,0.8v87.6c-5.2-1.7-9.6-2.6-13.4-2.6
			c-12.6,0-21.2,6.1-25.8,18.3c-2.1,5.2-3.1,15.2-3.1,30v6.2V570.7z"/>
		<path class="st0" d="M1163.6,431.4V231.2h86.3v189.1v11.6c0,15.7,2.1,27.6,6.2,35.7c4,7.2,9.4,12.7,16.3,16.5
			c7.1,4,14.7,5.9,23,5.9c8.8,0,16.7-2.1,23.8-6.5c7.2-4.3,12.8-10.1,16.8-17.3c4.1-7.2,6.2-15.2,6.2-23.8c0-8.4-2.1-16.3-6.2-23.5
			c-4.5-7.2-10.3-12.8-17.3-16.8c-7.6-4-15.8-5.9-24.6-5.9c-8.1,0-17.6,2-28.4,5.9v-88.6c10-2.2,19.2-3.4,27.7-3.4
			c24.5,0,47.1,5.8,68,17.3c20.7,11.5,36.9,27.5,48.8,47.8c11.9,20.3,17.8,42.6,17.8,66.9c0,24.1-5.9,46.4-17.6,66.9
			c-11.9,20.7-27.8,36.9-47.8,48.8c-20.2,11.9-42.3,17.8-66.4,17.8c-24.1,0-46.3-5.8-66.7-17.3c-20.5-11.7-36.5-27.7-48.1-47.8
			c-11.9-20.1-17.8-42.1-17.8-65.9V431.4z"/>
		<path class="st0" d="M1648.6,311.1h47.5v86.3h-47.5V442v11.6c0,12.9,2.8,22.4,8.3,28.4c5.3,5.9,14,8.8,26.1,8.8
			c1,0,5.4-0.4,13.2-1.3v85.3c-7.2,0.9-12.9,1.3-17.1,1.3c-12.7,0-24.8-1.8-36.2-5.4c-11.5-3.4-22.1-8.6-31.8-15.5
			c-9.7-6.5-18.2-14.7-25.6-24.6c-6-8.4-10.8-16.8-14.2-25.1c-3.3-7.9-5.6-17.4-7-28.4c-1.4-11.5-2.1-25.7-2.1-42.4V427V231.2h86.3
			V311.1z"/>
		<path class="st0" d="M1492.1,332.7c-16.8,0-32.1-6.8-43.1-17.8v255.8h86.6V314.6C1524.4,325.8,1509,332.7,1492.1,332.7"/>
		<path class="st1" d="M1445,271.5c0-26,21.1-47.1,47.1-47.1c26,0,47.1,21.1,47.1,47.1c0,26-21.1,47.1-47.1,47.1
			C1466.1,318.6,1445,297.5,1445,271.5"/>
		<path class="st0" d="M257.6,332.6c-16.8,0-32.1-6.8-43.1-17.8v255.9h86.6V314.6H301C289.9,325.7,274.6,332.6,257.6,332.6"/>
		<path class="st0" d="M210.5,271.4c0-26,21.1-47.1,47.1-47.1c26,0,47.1,21.1,47.1,47.1c0,26-21.1,47-47.1,47
			C231.6,318.5,210.5,297.4,210.5,271.4"/>
		<path class="st1" d="M810.9,421.8c0-32.5,26.4-58.8,58.9-58.8c32.5,0,58.9,26.3,58.9,58.8c0,32.5-26.4,58.8-58.9,58.8
			C837.3,480.7,810.9,454.3,810.9,421.8"/>
		<path class="st1" d="M966.1,271.2c0-22.4,18.2-40.6,40.6-40.6c22.4,0,40.6,18.2,40.6,40.6c0,22.4-18.2,40.6-40.6,40.6
			C984.3,311.8,966.1,293.7,966.1,271.2"/>
		<path class="st1" d="M881.8,197.1c0-13,10.5-23.5,23.6-23.5c13,0,23.5,10.5,23.5,23.5c0,13-10.5,23.5-23.5,23.5
			C892.3,220.6,881.8,210.1,881.8,197.1"/>
		<path class="st0" d="M1006.9,323.9c-0.1,0-0.1,0-0.2,0c-29.1,0-52.7-23.6-52.7-52.7c0-10.4,3.1-20,8.2-28.1
			c-10.3-8.5-22-15.4-34.8-20.7c-5.9,5.1-13.6,8.3-22.1,8.3c-13.8,0-25.6-8.3-30.8-20.2c-52.2-3.4-113.1,13.9-170.9,54.8
			C594.5,342.5,560.4,458.2,612,531.1c51.6,72.9,172,79.3,281.1,2.1C977,473.9,1016.5,391.8,1006.9,323.9 M943.8,421.8
			c0,40.8-33.2,73.9-74,73.9c-17.1,0-32.8-5.9-45.4-15.6c-66.2,30.6-124.8,19.5-152.8-20C638,412.5,658,336.7,740.4,278.4
			c82.4-58.3,160.6-51.8,194.3-4.2c20.9,29.5,21.1,69.8-1.2,110C940,395.2,943.8,408.1,943.8,421.8"/>
	</g>
	<path class="st0" d="M865.3,685.8h29.8v54.1h-29.8v25.8v7.3c0,8.1,1.7,14,5.2,17.8c3.3,3.7,8.8,5.5,16.4,5.5c0.6,0,3.4-0.3,8.3-0.8
		V849c-4.5,0.5-8.1,0.8-10.7,0.8c-8,0-15.6-1.1-22.7-3.4c-7.2-2.2-13.9-5.4-19.9-9.7c-6-4.1-11.4-9.2-16-15.4
		c-3.8-5.3-6.8-10.5-8.9-15.7c-2.1-5-3.5-10.9-4.4-17.8c-0.9-7.2-1.3-16.1-1.3-26.6v-4.9V638.5h54.1V685.8z"/>
	<path class="st0" d="M1505.9,769l39.8,65.7c-14.2,9.9-30.2,14.9-48.1,14.9c-14.8,0-28.5-3.7-41-11.2s-22.4-17.6-29.7-30.3
		c-7.5-12.9-11.2-26.7-11.2-41.6c0-15.2,3.7-29.2,11.2-42c7.2-12.7,17.3-22.8,30.1-30.3c12.9-7.3,26.8-11,42-11
		c16.9,0,32.5,5,46.8,14.9l-39.9,69V769z"/>
	<path class="st0" d="M1688.1,782.9l13.1,53c-16.6,9.2-34.5,13.8-53.6,13.8c-17.5,0-33.1-3.6-46.8-10.9c-7.1-3.8-13.4-8.2-18.8-13.2
		s-10.1-10.7-14.1-17.1c-8-12.9-12-27.1-12-42.6c0-15.1,3.7-29,11.2-41.6c7.2-12.5,17.3-22.6,30.3-30.1c12.9-7.3,26.8-11,42-11
		c14.7,0,28.3,3.4,40.7,10.2c6.2,3.3,11.8,7.5,16.9,12.3s9.6,10.5,13.6,17l-67.4,72.9c2.5,0.6,4.8,1,7,1
		C1661.7,796.5,1674.4,791.9,1688.1,782.9z"/>
	<path class="st0" d="M271.2,846.3h-54.1v-74.9v-7.8c0-9.3,0.9-17.8,2.6-25.4c1.8-8.2,4.5-15.2,8.1-20.9c3.9-6.3,8.6-11.8,14.1-16.7
		c13.4-11.8,29.5-17.7,48.5-17.7c1.7,0,4.2,0.2,7.5,0.5v54.9c-3.2-1.1-6-1.6-8.4-1.6c-7.9,0-13.3,3.8-16.2,11.5
		c-1.3,3.2-1.9,9.5-1.9,18.8v3.9V846.3z"/>
	<path class="st0" d="M930.6,850v-55.4c9.4,0,16-1.8,19.8-5.5c3.8-3.7,6-10,6.6-19.1l1.1-17.3c1-12.9,3.6-23.6,7.8-32.1
		c4-8.4,10.4-15.9,19.1-22.4c13.4-9.8,28.6-14.7,45.7-14.7c1.8,0,4.6,0.2,8.3,0.5v55.3c-0.8-0.1-2.4-0.2-4.9-0.2
		c-7.5,0-12.9,2.1-16.4,6.2c-3.2,3.9-5.1,10.9-5.7,21.1l-1,18.1c-0.5,9.7-2.6,18.5-6.2,26.4c-3.7,8-8.9,15-15.6,21.1
		c-6.6,5.9-14.3,10.5-23,13.6c-8.9,3.1-18.2,4.7-28,4.7C934.8,850.2,932.2,850.2,930.6,850z"/>
	<circle class="st1" cx="378" cy="773.1" r="63.9"/>
	<circle class="st1" cx="719.7" cy="773.1" r="63.9"/>
	<path class="st0" d="M559.1,683.8c-0.4-0.1-0.9-0.1-1.3-0.2c-0.3,0-0.6-0.1-0.9-0.1c-3.2-0.3-6.5-0.5-9.8-0.5
		c-5.3,0-11.1,0.7-17.3,2.1v0.3c-3.4,0.8-6.7,1.8-9.9,3v-63.3h-54.1V759v8.4c0,14.9,3.7,28.7,11.2,41.3c7.2,12.6,17.3,22.6,30.1,30
		c7.6,4.3,15.7,7.4,24.2,9.1c5.7,1.2,11.6,1.9,17.7,1.9c46,0,83.3-37.3,83.3-83.3C632.3,723.9,600.3,688.8,559.1,683.8z"/>
	<path class="st0" d="M1199,715.4c-0.1-0.2-0.3-0.4-0.4-0.5c-0.5-0.7-1.1-1.3-1.6-2c-6.1-7.5-13.5-13.7-22.1-18.7
		c-11.5-6.6-23.8-10.2-37-10.9c-0.3,0-0.6,0-0.9,0c-1.2-0.1-2.4-0.1-3.5-0.1c-0.1,0-0.2,0-0.2,0c0,0,0,0-0.1,0c0,0-0.1,0-0.1,0
		c-6.6,0-12.9,0.6-19,1.9c-6.5,1.5-12.3,3.5-17.3,6c-5.3,2.7-10.5,5.9-15.7,9.7c-4.8,3.7-9.2,8.2-13.3,13.5
		c-4.4,5.4-7.8,10.8-10.2,16.2c-2.2,4.8-3.8,9.8-4.9,14.9c-1.8,6.7-2.7,13.8-2.7,21c0,0.8,0,1.6,0.1,2.4c0,1-0.1,2-0.1,3.1v10.7
		v124.5h54.1v-62.6c3.2,1.2,6.5,2.2,9.9,3v0.2c5.7,1.4,11.3,2.1,16.7,2.1c0.6,0,1.2,0,1.7,0c0.3,0,0.6,0,0.8,0
		c46,0,83.3-37.3,83.3-83.3C1216.5,747.2,1210,729.5,1199,715.4z"/>
	<path class="st0" d="M1397.9,766.5c0-19-6.4-36.6-17.1-50.6c-0.6-0.7-1.1-1.4-1.7-2.1c-0.2-0.2-0.3-0.4-0.5-0.6
		c-6.3-7.7-13.9-14.1-22.7-19.1c-7-4-14.4-6.8-22.2-8.6c-0.9-0.2-1.8-0.4-2.7-0.6c-0.5-0.1-0.9-0.2-1.4-0.2
		c-1.4-0.3-2.8-0.5-4.2-0.6c-0.2,0-0.4-0.1-0.6-0.1c-3.4-0.4-6.8-0.7-10.3-0.7c-0.1,0-0.2,0-0.3,0c-0.1,0-0.2,0-0.3,0
		c-15.1,0-29,3.7-41.5,11.2c-10.9,6.5-19.9,14.9-26.9,25.5c0,0,0,0.1-0.1,0.1c-0.2,0.2-0.3,0.5-0.5,0.7c-5.4,8.1-9.3,17.2-11.6,27
		c0,0.1,0,0.2-0.1,0.2c-0.6,2.6-1.1,5.2-1.4,7.9c0,0.1,0,0.2,0,0.2c-0.3,2.5-0.5,5-0.6,7.5c0,0.7,0,1.5-0.1,2.3c0,0.3,0,0.5,0,0.8
		c0,0.1,0,0.1,0,0.2c0,0.1,0,0.2,0,0.3c0,15.2,3.7,29.2,11.2,41.8c6.7,11.5,15.8,20.8,27.3,27.9c12.3,7.8,26.7,12.5,42.2,13
		c1.2,0,2.5,0.1,3.7,0.1c3.2,0,6.6-0.3,10.1-0.8c0.8-0.1,1.6-0.2,2.4-0.4c0.1,0,0.3,0,0.4-0.1c4.9-0.8,9.7-2.1,14.3-3.7v1.6h54.3
		v-69.8C1397.6,773.3,1397.9,769.9,1397.9,766.5z"/>
</g>
</svg>
